<?xml version="1.0" standalone="no"?><!DOCTYPE svg PUBLIC "-//W3C//DTD SVG 1.1//EN" "http://www.w3.org/Graphics/SVG/1.1/DTD/svg11.dtd"><svg t="1568183197236" class="icon" viewBox="0 0 1024 1024" version="1.1" xmlns="http://www.w3.org/2000/svg" p-id="1139" xmlns:xlink="http://www.w3.org/1999/xlink" width="200" height="200"><defs><style type="text/css"></style></defs><path d="M512 0C229.180952 0 0 229.180952 0 512s229.180952 512 512 512 512-229.180952 512-512S794.819048 0 512 0z" fill="#EDEEF0" p-id="1140"></path><path d="M512 755.809524c-129.219048 0-253.561905 51.2-341.333333 143.847619 12.190476 19.504762 163.352381 124.342857 341.333333 124.342857 180.419048 0 321.828571-97.52381 341.333333-124.342857-87.771429-92.647619-212.114286-143.847619-341.333333-143.847619z" fill="#C4D8EA" p-id="1141"></path><path d="M499.809524 609.52381c-46.32381 0-85.333333 36.571429-85.333334 82.895238v82.895238c0 43.885714 39.009524 80.457143 85.333334 80.457143s85.333333-36.571429 85.333333-80.457143v-82.895238c0-46.32381-39.009524-82.895238-85.333333-82.895238z" fill="#BBBBBB" p-id="1142"></path><path d="M646.095238 195.047619h-268.190476c-56.07619 0-109.714286 56.07619-109.714286 112.152381V512h487.619048v-204.8c0-56.07619-56.07619-112.152381-109.714286-112.152381z" fill="#797979" p-id="1143"></path><path d="M290.133333 465.67619C251.12381 465.67619 219.428571 497.371429 219.428571 536.380952c0 26.819048 12.190476 51.2 34.133334 63.390477 21.942857 12.190476 48.761905 12.190476 70.704762 0 21.942857-12.190476 34.133333-36.571429 34.133333-63.390477 0-39.009524-31.695238-70.704762-68.266667-70.704762z m419.352381-2.438095c-39.009524 0-70.704762 31.695238-70.704762 73.142857 0 26.819048 12.190476 48.761905 34.133334 63.390477 21.942857 12.190476 48.761905 12.190476 70.704762 0C768 585.142857 780.190476 560.761905 780.190476 536.380952c0-41.447619-31.695238-73.142857-70.704762-73.142857z" fill="#BBBBBB" p-id="1144"></path><path d="M499.809524 268.190476c-56.07619 0-107.27619 21.942857-146.285714 58.514286-39.009524 39.009524-60.952381 90.209524-60.952381 143.847619v80.457143c0 112.152381 92.647619 202.361905 207.238095 202.361905s207.238095-90.209524 207.238095-202.361905v-80.457143c0-112.152381-92.647619-202.361905-207.238095-202.361905z" fill="#F6F6F6" p-id="1145"></path><path d="M373.028571 516.87619V341.333333s-48.761905 41.447619-56.07619 129.219048v87.771429c0 75.580952 19.504762 107.27619 48.761905 146.285714 39.009524 48.761905 97.52381 75.580952 146.285714 75.580952-87.771429-65.828571-138.971429-156.038095-138.971429-263.314286z" fill="#EDEEF0" p-id="1146"></path><path d="M512 143.847619c-80.457143 0-146.285714 39.009524-146.285714 85.333333 0 48.761905 65.828571 85.333333 146.285714 85.333334s146.285714-39.009524 146.285714-85.333334V121.904762c-68.266667 14.628571-117.028571 21.942857-146.285714 21.942857z" fill="#797979" p-id="1147"></path></svg>